<svg width="121" height="26" viewBox="0 0 121 26" fill="none" xmlns="http://www.w3.org/2000/svg">
<mask id="path-1-outside-1" maskUnits="userSpaceOnUse" x="0" y="0" width="23" height="26" fill="black">
<rect fill="white" width="23" height="26"/>
<path fill-rule="evenodd" clip-rule="evenodd" d="M11.5094 1C13.034 1 14.3409 2.6186 15.2121 5.18605L14.1231 5.52093C13.4152 3.4 12.4895 2.11628 11.5094 2.11628C10.4748 2.11628 9.33125 3.73488 8.62337 6.35814C9.61178 6.67671 10.5763 7.06844 11.5094 7.53023H11.6727C12.1083 7.25116 12.544 7.08372 12.9796 6.91628L13.1429 6.86047C14.4498 6.30233 15.7022 5.96744 16.8457 5.74419C19.2961 5.35349 21.0386 5.74419 21.7465 7.02791C22.4543 8.2 21.9098 9.98605 20.3307 11.9395L20.0584 12.2744L19.2961 11.493C20.7119 9.8186 21.2564 8.36744 20.8208 7.58605C20.3851 6.80465 18.9694 6.52558 17.0091 6.86047L15.7022 7.13954C15.948 8.16604 16.1119 9.21135 16.1923 10.2651C17.7001 11.375 19.0875 12.6474 20.3307 14.0605C21.9643 16.014 22.4543 17.8 21.7465 19.0279C21.2019 19.9209 20.1129 20.3674 18.5337 20.3674C17.8021 20.3714 17.0721 20.2965 16.3556 20.1442L16.6279 19.0279L17.0091 19.1395C18.9694 19.4744 20.3851 19.1953 20.8208 18.4698C21.3653 17.5209 20.494 15.7349 18.6427 13.7814L17.9892 14.3395H17.9348L16.1923 15.7349L16.0834 16.7395C15.4844 21.6512 13.7419 25 11.5094 25C10.0391 25 8.73227 23.3814 7.86103 20.814L8.95008 20.4791C9.60352 22.6558 10.5837 23.8837 11.5094 23.8837C12.5984 23.8837 13.6875 22.2651 14.3953 19.586C13.4062 19.2925 12.4412 18.9192 11.5094 18.4698L10.3659 19.0279H10.2025C8.02439 19.9209 6.06409 20.3674 4.53942 20.3674C2.96029 20.3674 1.81679 19.9209 1.27226 19.0279C0.564379 17.6884 1.27226 15.6791 3.0692 13.614L3.83154 14.4512C2.36132 16.1256 1.76234 17.6326 2.19796 18.4698C2.74248 19.3628 4.70278 19.586 7.31651 18.8605C7.09768 17.8308 6.95209 16.7862 6.88088 15.7349L5.90074 14.9535C2.85139 12.5535 1 10.0419 1 8.14419C1 7.69767 1.10891 7.30698 1.32672 6.91628C2.0346 5.63256 4.04935 5.24186 6.71753 5.8C6.61472 6.1689 6.52392 6.5412 6.44526 6.91628C4.26716 6.46977 2.68803 6.69302 2.25241 7.47442C1.70788 8.42326 2.52467 10.2093 4.43052 12.1628C5.19622 11.447 6.01553 10.7938 6.88088 10.2093L6.98979 9.20465C7.53432 4.34884 9.33125 1 11.5094 1ZM14.9943 16.5163L14.1775 17.0744L13.9053 17.186L12.9251 17.7442L12.8162 17.8C13.4235 18.0676 14.0411 18.3096 14.6676 18.5256C14.8063 17.8613 14.9153 17.1908 14.9943 16.5163ZM8.07884 16.5163C8.16149 17.1903 8.27048 17.8606 8.40556 18.5256C9.03399 18.3152 9.65187 18.073 10.2569 17.8C9.89046 17.6211 9.52738 17.4351 9.16789 17.2419L9.05899 17.186C8.72844 16.9687 8.40167 16.7455 8.07884 16.5163ZM11.5094 8.81395C10.2644 9.43384 9.06354 10.1426 7.91548 10.9349C7.81883 12.3471 7.81883 13.7645 7.91548 15.1767C9.05675 15.9802 10.2585 16.6894 11.5094 17.2977L11.6183 17.2419C12.8262 16.6391 13.9908 15.949 15.1032 15.1767C15.1995 13.7645 15.1995 12.3471 15.1032 10.9349C13.958 10.138 12.7567 9.42905 11.5094 8.81395ZM11.5094 11.6047C11.7894 11.6047 12.0631 11.6898 12.2959 11.8492C12.5287 12.0087 12.7102 12.2353 12.8174 12.5005C12.9245 12.7656 12.9526 13.0574 12.8979 13.3389C12.8433 13.6204 12.7085 13.879 12.5105 14.0819C12.3125 14.2849 12.0602 14.4231 11.7856 14.4791C11.5109 14.5351 11.2263 14.5063 10.9676 14.3965C10.7089 14.2867 10.4878 14.1007 10.3322 13.862C10.1766 13.6234 10.0936 13.3428 10.0936 13.0558C10.0936 12.2744 10.747 11.6047 11.5094 11.6047ZM16.2467 11.7721V14.3395L17.0635 13.6698L17.1724 13.614L17.8259 13.0558C17.3191 12.6031 16.7922 12.1747 16.2467 11.7721ZM6.77198 11.7721C6.24654 12.1781 5.73787 12.6063 5.24731 13.0558C5.73654 13.5069 6.24528 13.9352 6.77198 14.3395V13.0558V12.7209V11.7721ZM14.6676 7.53023C14.0571 7.7195 13.4572 7.9431 12.8707 8.2H12.8162L13.9053 8.86977H13.9597L14.9943 9.53954C14.9134 8.8653 14.8044 8.19492 14.6676 7.53023ZM8.40556 7.53023C8.26681 8.19454 8.15779 8.86501 8.07884 9.53954L9.11344 8.86977L10.2025 8.25581C9.61314 7.98963 9.01369 7.74758 8.40556 7.53023Z"/>
</mask>
<path fill-rule="evenodd" clip-rule="evenodd" d="M11.5094 1C13.034 1 14.3409 2.6186 15.2121 5.18605L14.1231 5.52093C13.4152 3.4 12.4895 2.11628 11.5094 2.11628C10.4748 2.11628 9.33125 3.73488 8.62337 6.35814C9.61178 6.67671 10.5763 7.06844 11.5094 7.53023H11.6727C12.1083 7.25116 12.544 7.08372 12.9796 6.91628L13.1429 6.86047C14.4498 6.30233 15.7022 5.96744 16.8457 5.74419C19.2961 5.35349 21.0386 5.74419 21.7465 7.02791C22.4543 8.2 21.9098 9.98605 20.3307 11.9395L20.0584 12.2744L19.2961 11.493C20.7119 9.8186 21.2564 8.36744 20.8208 7.58605C20.3851 6.80465 18.9694 6.52558 17.0091 6.86047L15.7022 7.13954C15.948 8.16604 16.1119 9.21135 16.1923 10.2651C17.7001 11.375 19.0875 12.6474 20.3307 14.0605C21.9643 16.014 22.4543 17.8 21.7465 19.0279C21.2019 19.9209 20.1129 20.3674 18.5337 20.3674C17.8021 20.3714 17.0721 20.2965 16.3556 20.1442L16.6279 19.0279L17.0091 19.1395C18.9694 19.4744 20.3851 19.1953 20.8208 18.4698C21.3653 17.5209 20.494 15.7349 18.6427 13.7814L17.9892 14.3395H17.9348L16.1923 15.7349L16.0834 16.7395C15.4844 21.6512 13.7419 25 11.5094 25C10.0391 25 8.73227 23.3814 7.86103 20.814L8.95008 20.4791C9.60352 22.6558 10.5837 23.8837 11.5094 23.8837C12.5984 23.8837 13.6875 22.2651 14.3953 19.586C13.4062 19.2925 12.4412 18.9192 11.5094 18.4698L10.3659 19.0279H10.2025C8.02439 19.9209 6.06409 20.3674 4.53942 20.3674C2.96029 20.3674 1.81679 19.9209 1.27226 19.0279C0.564379 17.6884 1.27226 15.6791 3.0692 13.614L3.83154 14.4512C2.36132 16.1256 1.76234 17.6326 2.19796 18.4698C2.74248 19.3628 4.70278 19.586 7.31651 18.8605C7.09768 17.8308 6.95209 16.7862 6.88088 15.7349L5.90074 14.9535C2.85139 12.5535 1 10.0419 1 8.14419C1 7.69767 1.10891 7.30698 1.32672 6.91628C2.0346 5.63256 4.04935 5.24186 6.71753 5.8C6.61472 6.1689 6.52392 6.5412 6.44526 6.91628C4.26716 6.46977 2.68803 6.69302 2.25241 7.47442C1.70788 8.42326 2.52467 10.2093 4.43052 12.1628C5.19622 11.447 6.01553 10.7938 6.88088 10.2093L6.98979 9.20465C7.53432 4.34884 9.33125 1 11.5094 1ZM14.9943 16.5163L14.1775 17.0744L13.9053 17.186L12.9251 17.7442L12.8162 17.8C13.4235 18.0676 14.0411 18.3096 14.6676 18.5256C14.8063 17.8613 14.9153 17.1908 14.9943 16.5163ZM8.07884 16.5163C8.16149 17.1903 8.27048 17.8606 8.40556 18.5256C9.03399 18.3152 9.65187 18.073 10.2569 17.8C9.89046 17.6211 9.52738 17.4351 9.16789 17.2419L9.05899 17.186C8.72844 16.9687 8.40167 16.7455 8.07884 16.5163ZM11.5094 8.81395C10.2644 9.43384 9.06354 10.1426 7.91548 10.9349C7.81883 12.3471 7.81883 13.7645 7.91548 15.1767C9.05675 15.9802 10.2585 16.6894 11.5094 17.2977L11.6183 17.2419C12.8262 16.6391 13.9908 15.949 15.1032 15.1767C15.1995 13.7645 15.1995 12.3471 15.1032 10.9349C13.958 10.138 12.7567 9.42905 11.5094 8.81395ZM11.5094 11.6047C11.7894 11.6047 12.0631 11.6898 12.2959 11.8492C12.5287 12.0087 12.7102 12.2353 12.8174 12.5005C12.9245 12.7656 12.9526 13.0574 12.8979 13.3389C12.8433 13.6204 12.7085 13.879 12.5105 14.0819C12.3125 14.2849 12.0602 14.4231 11.7856 14.4791C11.5109 14.5351 11.2263 14.5063 10.9676 14.3965C10.7089 14.2867 10.4878 14.1007 10.3322 13.862C10.1766 13.6234 10.0936 13.3428 10.0936 13.0558C10.0936 12.2744 10.747 11.6047 11.5094 11.6047ZM16.2467 11.7721V14.3395L17.0635 13.6698L17.1724 13.614L17.8259 13.0558C17.3191 12.6031 16.7922 12.1747 16.2467 11.7721ZM6.77198 11.7721C6.24654 12.1781 5.73787 12.6063 5.24731 13.0558C5.73654 13.5069 6.24528 13.9352 6.77198 14.3395V13.0558V12.7209V11.7721ZM14.6676 7.53023C14.0571 7.7195 13.4572 7.9431 12.8707 8.2H12.8162L13.9053 8.86977H13.9597L14.9943 9.53954C14.9134 8.8653 14.8044 8.19492 14.6676 7.53023ZM8.40556 7.53023C8.26681 8.19454 8.15779 8.86501 8.07884 9.53954L9.11344 8.86977L10.2025 8.25581C9.61314 7.98963 9.01369 7.74758 8.40556 7.53023Z" fill="#702EEB"/>
<path fill-rule="evenodd" clip-rule="evenodd" d="M11.5094 1C13.034 1 14.3409 2.6186 15.2121 5.18605L14.1231 5.52093C13.4152 3.4 12.4895 2.11628 11.5094 2.11628C10.4748 2.11628 9.33125 3.73488 8.62337 6.35814C9.61178 6.67671 10.5763 7.06844 11.5094 7.53023H11.6727C12.1083 7.25116 12.544 7.08372 12.9796 6.91628L13.1429 6.86047C14.4498 6.30233 15.7022 5.96744 16.8457 5.74419C19.2961 5.35349 21.0386 5.74419 21.7465 7.02791C22.4543 8.2 21.9098 9.98605 20.3307 11.9395L20.0584 12.2744L19.2961 11.493C20.7119 9.8186 21.2564 8.36744 20.8208 7.58605C20.3851 6.80465 18.9694 6.52558 17.0091 6.86047L15.7022 7.13954C15.948 8.16604 16.1119 9.21135 16.1923 10.2651C17.7001 11.375 19.0875 12.6474 20.3307 14.0605C21.9643 16.014 22.4543 17.8 21.7465 19.0279C21.2019 19.9209 20.1129 20.3674 18.5337 20.3674C17.8021 20.3714 17.0721 20.2965 16.3556 20.1442L16.6279 19.0279L17.0091 19.1395C18.9694 19.4744 20.3851 19.1953 20.8208 18.4698C21.3653 17.5209 20.494 15.7349 18.6427 13.7814L17.9892 14.3395H17.9348L16.1923 15.7349L16.0834 16.7395C15.4844 21.6512 13.7419 25 11.5094 25C10.0391 25 8.73227 23.3814 7.86103 20.814L8.95008 20.4791C9.60352 22.6558 10.5837 23.8837 11.5094 23.8837C12.5984 23.8837 13.6875 22.2651 14.3953 19.586C13.4062 19.2925 12.4412 18.9192 11.5094 18.4698L10.3659 19.0279H10.2025C8.02439 19.9209 6.06409 20.3674 4.53942 20.3674C2.96029 20.3674 1.81679 19.9209 1.27226 19.0279C0.564379 17.6884 1.27226 15.6791 3.0692 13.614L3.83154 14.4512C2.36132 16.1256 1.76234 17.6326 2.19796 18.4698C2.74248 19.3628 4.70278 19.586 7.31651 18.8605C7.09768 17.8308 6.95209 16.7862 6.88088 15.7349L5.90074 14.9535C2.85139 12.5535 1 10.0419 1 8.14419C1 7.69767 1.10891 7.30698 1.32672 6.91628C2.0346 5.63256 4.04935 5.24186 6.71753 5.8C6.61472 6.1689 6.52392 6.5412 6.44526 6.91628C4.26716 6.46977 2.68803 6.69302 2.25241 7.47442C1.70788 8.42326 2.52467 10.2093 4.43052 12.1628C5.19622 11.447 6.01553 10.7938 6.88088 10.2093L6.98979 9.20465C7.53432 4.34884 9.33125 1 11.5094 1ZM14.9943 16.5163L14.1775 17.0744L13.9053 17.186L12.9251 17.7442L12.8162 17.8C13.4235 18.0676 14.0411 18.3096 14.6676 18.5256C14.8063 17.8613 14.9153 17.1908 14.9943 16.5163ZM8.07884 16.5163C8.16149 17.1903 8.27048 17.8606 8.40556 18.5256C9.03399 18.3152 9.65187 18.073 10.2569 17.8C9.89046 17.6211 9.52738 17.4351 9.16789 17.2419L9.05899 17.186C8.72844 16.9687 8.40167 16.7455 8.07884 16.5163ZM11.5094 8.81395C10.2644 9.43384 9.06354 10.1426 7.91548 10.9349C7.81883 12.3471 7.81883 13.7645 7.91548 15.1767C9.05675 15.9802 10.2585 16.6894 11.5094 17.2977L11.6183 17.2419C12.8262 16.6391 13.9908 15.949 15.1032 15.1767C15.1995 13.7645 15.1995 12.3471 15.1032 10.9349C13.958 10.138 12.7567 9.42905 11.5094 8.81395ZM11.5094 11.6047C11.7894 11.6047 12.0631 11.6898 12.2959 11.8492C12.5287 12.0087 12.7102 12.2353 12.8174 12.5005C12.9245 12.7656 12.9526 13.0574 12.8979 13.3389C12.8433 13.6204 12.7085 13.879 12.5105 14.0819C12.3125 14.2849 12.0602 14.4231 11.7856 14.4791C11.5109 14.5351 11.2263 14.5063 10.9676 14.3965C10.7089 14.2867 10.4878 14.1007 10.3322 13.862C10.1766 13.6234 10.0936 13.3428 10.0936 13.0558C10.0936 12.2744 10.747 11.6047 11.5094 11.6047ZM16.2467 11.7721V14.3395L17.0635 13.6698L17.1724 13.614L17.8259 13.0558C17.3191 12.6031 16.7922 12.1747 16.2467 11.7721ZM6.77198 11.7721C6.24654 12.1781 5.73787 12.6063 5.24731 13.0558C5.73654 13.5069 6.24528 13.9352 6.77198 14.3395V13.0558V12.7209V11.7721ZM14.6676 7.53023C14.0571 7.7195 13.4572 7.9431 12.8707 8.2H12.8162L13.9053 8.86977H13.9597L14.9943 9.53954C14.9134 8.8653 14.8044 8.19492 14.6676 7.53023ZM8.40556 7.53023C8.26681 8.19454 8.15779 8.86501 8.07884 9.53954L9.11344 8.86977L10.2025 8.25581C9.61314 7.98963 9.01369 7.74758 8.40556 7.53023Z" stroke="#702EEB" stroke-width="0.4" mask="url(#path-1-outside-1)"/>
<path d="M31.5407 14.9902V20H28.611V5.78125H34.1579C35.2256 5.78125 36.1631 5.97656 36.9704 6.36719C37.7842 6.75781 38.4092 7.31445 38.8454 8.03711C39.2816 8.75326 39.4997 9.57031 39.4997 10.4883C39.4997 11.8815 39.0211 12.9818 38.0641 13.7891C37.1136 14.5898 35.7952 14.9902 34.109 14.9902H31.5407ZM31.5407 12.6172H34.1579C34.9326 12.6172 35.5218 12.4349 35.9254 12.0703C36.3356 11.7057 36.5407 11.1849 36.5407 10.5078C36.5407 9.8112 36.3356 9.24805 35.9254 8.81836C35.5153 8.38867 34.9489 8.16732 34.2262 8.1543H31.5407V12.6172ZM46.7848 14.7949H44.4508V20H41.5211V5.78125H46.8044C48.484 5.78125 49.7796 6.1556 50.6911 6.9043C51.6025 7.65299 52.0583 8.71094 52.0583 10.0781C52.0583 11.0482 51.8467 11.8587 51.4235 12.5098C51.0068 13.1543 50.3721 13.6686 49.5192 14.0527L52.5954 19.8633V20H49.4508L46.7848 14.7949ZM44.4508 12.4219H46.8141C47.5498 12.4219 48.1195 12.2363 48.5231 11.8652C48.9267 11.4876 49.1286 10.9701 49.1286 10.3125C49.1286 9.64193 48.9365 9.11458 48.5524 8.73047C48.1748 8.34635 47.5921 8.1543 46.8044 8.1543H44.4508V12.4219ZM65.9743 13.2129C65.9743 14.6126 65.7269 15.8398 65.2321 16.8945C64.7373 17.9492 64.0277 18.763 63.1032 19.3359C62.1852 19.9089 61.1305 20.1953 59.9391 20.1953C58.7607 20.1953 57.7093 19.9121 56.7848 19.3457C55.8603 18.7793 55.1442 17.972 54.6364 16.9238C54.1286 15.8691 53.8714 14.6582 53.8649 13.291V12.5879C53.8649 11.1882 54.1155 9.95768 54.6169 8.89648C55.1247 7.82878 55.8376 7.01172 56.7555 6.44531C57.68 5.8724 58.7347 5.58594 59.9196 5.58594C61.1045 5.58594 62.1559 5.8724 63.0739 6.44531C63.9984 7.01172 64.7113 7.82878 65.2126 8.89648C65.7204 9.95768 65.9743 11.1849 65.9743 12.5781V13.2129ZM63.0055 12.5684C63.0055 11.0775 62.7386 9.94466 62.2047 9.16992C61.6709 8.39518 60.9092 8.00781 59.9196 8.00781C58.9365 8.00781 58.178 8.39193 57.6442 9.16016C57.1103 9.92188 56.8402 11.0417 56.8336 12.5195V13.2129C56.8336 14.6647 57.1006 15.791 57.6344 16.5918C58.1683 17.3926 58.9365 17.793 59.9391 17.793C60.9222 17.793 61.6774 17.4089 62.2047 16.6406C62.7321 15.8659 62.999 14.7396 63.0055 13.2617V12.5684ZM77.9665 8.1543H73.611V20H70.6813V8.1543H66.3844V5.78125H77.9665V8.1543ZM91.0524 13.2129C91.0524 14.6126 90.805 15.8398 90.3102 16.8945C89.8154 17.9492 89.1058 18.763 88.1813 19.3359C87.2633 19.9089 86.2086 20.1953 85.0172 20.1953C83.8389 20.1953 82.7874 19.9121 81.8629 19.3457C80.9385 18.7793 80.2223 17.972 79.7145 16.9238C79.2067 15.8691 78.9495 14.6582 78.943 13.291V12.5879C78.943 11.1882 79.1937 9.95768 79.695 8.89648C80.2028 7.82878 80.9157 7.01172 81.8336 6.44531C82.7581 5.8724 83.8128 5.58594 84.9977 5.58594C86.1826 5.58594 87.234 5.8724 88.152 6.44531C89.0765 7.01172 89.7894 7.82878 90.2907 8.89648C90.7985 9.95768 91.0524 11.1849 91.0524 12.5781V13.2129ZM88.0836 12.5684C88.0836 11.0775 87.8167 9.94466 87.2829 9.16992C86.749 8.39518 85.9873 8.00781 84.9977 8.00781C84.0146 8.00781 83.2562 8.39193 82.7223 9.16016C82.1885 9.92188 81.9183 11.0417 81.9118 12.5195V13.2129C81.9118 14.6647 82.1787 15.791 82.7126 16.5918C83.2464 17.3926 84.0146 17.793 85.0172 17.793C86.0003 17.793 86.7555 17.4089 87.2829 16.6406C87.8102 15.8659 88.0771 14.7396 88.0836 13.2617V12.5684ZM104.744 20H101.814L96.111 10.6445V20H93.1813V5.78125H96.111L101.824 15.1562V5.78125H104.744V20Z" fill="#702EEB"/>
</svg>
