<svg width="150" height="150" viewBox="0 0 150 150" fill="none" xmlns="http://www.w3.org/2000/svg">
<path d="M150 0H0V150H150V0Z" fill="white"/>
<path fill-rule="evenodd" clip-rule="evenodd" d="M74.8473 0C85.706 0 95.0133 10.1162 101.218 26.1627L93.4621 28.2557C88.4206 15 81.8278 6.97666 74.8473 6.97666C67.479 6.97666 59.3349 17.093 54.2934 33.4883C61.3327 35.4793 68.2022 37.9275 74.8473 40.8138H76.0108C79.1132 39.0697 82.2157 38.0232 85.3181 36.9767L86.4815 36.6279C95.789 33.1394 104.709 31.0463 112.853 29.651C130.305 27.2092 142.714 29.651 147.756 37.6744C152.797 44.9998 148.918 56.1626 137.672 68.372L135.733 70.465L130.305 65.5812C140.387 55.116 144.264 46.0463 141.163 41.1627C138.06 36.2789 127.978 34.5348 114.016 36.6279L104.709 38.372C106.459 44.7877 107.627 51.3207 108.199 57.9068C118.938 64.8437 128.818 72.796 137.672 81.6277C149.306 93.8369 152.797 105 147.756 112.674C143.878 118.255 136.121 121.047 124.875 121.047C119.664 121.07 114.465 120.603 109.362 119.65L111.301 112.674L114.016 113.372C127.978 115.465 138.06 113.721 141.163 109.186C145.041 103.256 138.836 92.0927 125.651 79.8835L120.997 83.3718H120.609L108.199 92.0927L107.423 98.3718C103.157 129.07 90.7475 150 74.8473 150C64.3764 150 55.0689 139.884 48.864 123.836L56.6203 121.743C61.274 135.349 68.2545 143.023 74.8473 143.023C82.6035 143.023 90.3596 132.907 95.4013 116.162C88.3563 114.328 81.4835 111.995 74.8473 109.186L66.7033 112.674H65.5398C50.0274 118.255 36.0664 121.047 25.2077 121.047C13.9612 121.047 5.81718 118.255 1.93912 112.674C-3.10256 104.302 1.93912 91.7439 14.7367 78.8369L20.1662 84.0695C9.69524 94.5347 5.42925 103.953 8.53181 109.186C12.4099 114.767 26.3711 116.162 44.9859 111.628C43.4274 105.192 42.3905 98.6634 41.8835 92.0927L34.9029 87.2091C13.1856 72.2091 0 56.5115 0 44.651C0 41.8603 0.775689 39.4185 2.32688 36.9767C7.36837 28.9535 21.7174 26.5115 40.7201 30C39.9879 32.3055 39.3412 34.6323 38.781 36.9767C23.2686 34.1859 12.0221 35.5814 8.91956 40.465C5.0415 46.3953 10.8587 57.558 24.432 69.7673C29.8854 65.2933 35.7204 61.2111 41.8835 57.558L42.659 51.2789C46.5371 20.9301 59.3349 0 74.8473 0ZM99.6671 96.9765L93.8499 100.465L91.911 101.163L84.9303 104.651L84.1546 105C88.4795 106.672 92.8783 108.185 97.3402 109.535C98.328 105.383 99.1044 101.192 99.6671 96.9765ZM50.4154 96.9765C51.0039 101.189 51.7802 105.378 52.742 109.535C57.2179 108.219 61.6183 106.706 65.9276 105C63.3176 103.882 60.7318 102.719 58.1715 101.511L57.3958 101.163C55.0417 99.8044 52.7145 98.4089 50.4154 96.9765ZM74.8473 48.8371C65.981 52.7113 57.4282 57.1409 49.2519 62.0929C48.5634 70.9192 48.5634 79.778 49.2519 88.6044C57.3798 93.6258 65.9387 98.0582 74.8473 101.86L75.6228 101.511C84.2261 97.744 92.5203 93.431 100.443 88.6044C101.129 79.778 101.129 70.9192 100.443 62.0929C92.2863 57.1121 83.7311 52.6813 74.8473 48.8371ZM74.8473 66.2789C76.8416 66.2789 78.791 66.8109 80.4491 67.8075C82.1073 68.8041 83.3996 70.2204 84.1629 71.8778C84.926 73.535 85.1257 75.3587 84.7367 77.118C84.3476 78.8774 83.3872 80.4935 81.977 81.762C80.567 83.0303 78.7704 83.8941 76.8144 84.2441C74.8584 84.594 72.8312 84.4144 70.9886 83.728C69.1462 83.0416 67.5714 81.879 66.4635 80.3876C65.3555 78.896 64.7642 77.1424 64.7642 75.3486C64.7642 70.465 69.4179 66.2789 74.8473 66.2789ZM108.587 67.3254V83.3718L114.404 79.1859L115.18 78.8369L119.833 75.3486C116.224 72.5192 112.471 69.8418 108.587 67.3254ZM41.1079 67.3254C37.3657 69.8627 33.743 72.5395 30.2492 75.3486C33.7335 78.1677 37.3567 80.8448 41.1079 83.3718V75.3486V73.2556V67.3254ZM97.3402 40.8138C92.9921 41.9967 88.7197 43.3942 84.5426 44.9998H84.1546L91.911 49.1859H92.2987L99.6671 53.372C99.0909 49.1581 98.3145 44.9681 97.3402 40.8138ZM52.742 40.8138C51.7539 44.9658 50.9775 49.1562 50.4154 53.372L57.7837 49.1859L65.5398 45.3488C61.3425 43.685 57.0733 42.1723 52.742 40.8138Z" fill="url(#paint0_linear_29425_7795)"/>
<defs>
<linearGradient id="paint0_linear_29425_7795" x1="21.45" y1="74.9998" x2="135.601" y2="80.2498" gradientUnits="userSpaceOnUse">
<stop stop-color="#7543E3"/>
<stop offset="1" stop-color="#582ACB"/>
</linearGradient>
</defs>
</svg>
